<?xml version="1.0" encoding="UTF-8"?>
<svg width="346px" id="my-svg" height="283px" viewBox="0 0 346 283" version="1.1" xmlns="http://www.w3.org/2000/svg" xmlns:xlink="http://www.w3.org/1999/xlink">

    <g id="Page-1" stroke="none" stroke-width="1" fill="none" fill-rule="evenodd">
                <rect id="Rectangle" fill="#FFFFFF" x="0" y="0" width="346" height="283"></rect>
                <path d="M118.5596,23.1567 C97.9546,2.5517 68.1566,6.6677 47.2386,27.5857" id="Stroke-1" stroke="#384C8E"></path>
                <path d="M122.4219,27.019 L119.2679,20.256 C119.2679,20.256 118.5599,23.157 115.6589,23.865 L122.4219,27.019" id="Fill-3" fill="#384C8E"></path>
                <path d="M279.838,263.7479 C308.978,263.7479 327.138,239.7669 327.138,210.1839" id="Stroke-5" stroke="#384C8E"></path>
                <path d="M274.3759,263.7479 L281.3879,266.2999 C281.3879,266.2999 279.8379,263.7479 281.3879,261.1959 L274.3759,263.7479" id="Fill-7" fill="#384C8E"></path>
                <path d="M214.1571,106.3285 C185.0171,106.3285 166.8571,130.3095 166.8571,159.8925" id="Stroke-9" stroke="#384C8E"></path>
                <path d="M219.6193,106.3285 L212.6073,103.7765 C212.6073,103.7765 214.1573,106.3285 212.6073,108.8805 L219.6193,106.3285" id="Fill-11" fill="#384C8E"></path>
                <path d="M233.2775,114.0905 C204.1375,114.0905 180.5155,132.6095 180.5155,162.1925" id="Stroke-13" stroke="#384C8E"></path>
                <path d="M180.5155,167.6543 L183.0675,160.6423 C183.0675,160.6423 180.5155,162.1923 177.9635,160.6423 L180.5155,167.6543" id="Fill-15" fill="#384C8E"></path>
                <path d="M230.3735,105.2917 C279.6875,105.2917 314.2025,65.3147 314.2025,16.0007" id="Stroke-17" stroke="#384C8E"></path>
                <path d="M224.9114,105.2917 L231.9234,107.8437 C231.9234,107.8437 230.3734,105.2917 231.9234,102.7397 L224.9114,105.2917" id="Fill-19" fill="#384C8E"></path>
                <path d="M157.6785,139.3695 C144.9155,91.7355 174.5965,48.0495 222.2305,35.2865" id="Stroke-21" stroke="#384C8E"></path>
                <path d="M159.0922,144.6455 L154.8122,138.5325 C154.8122,138.5325 157.6782,139.3695 159.7422,137.2115 L159.0922,144.6455" id="Fill-23" fill="#384C8E"></path>
                <path d="M180.5156,174.4565 C180.5156,223.7705 215.0306,263.7475 264.3446,263.7475" id="Stroke-25" stroke="#384C8E"></path>
                <path d="M269.8069,263.7479 L262.7949,261.1959 C262.7949,261.1959 264.3449,263.7479 262.7949,266.2999 L269.8069,263.7479" id="Fill-27" fill="#384C8E"></path>
                <path d="M76.5005,256.9456 C125.8145,256.9456 165.7915,222.4306 165.7915,173.1166" id="Stroke-29" stroke="#384C8E"></path>
                <path d="M165.7919,167.6543 L163.2399,174.6663 C163.2399,174.6663 165.7919,173.1163 168.3439,174.6663 L165.7919,167.6543" id="Fill-31" fill="#384C8E"></path>
                <path d="M128.1232,28.5015 C149.1822,49.5605 179.7142,53.1705 201.0822,31.8025" id="Stroke-33" stroke="#384C8E"></path>
                <path d="M204.9449,27.9397 L198.1819,31.0937 C198.1819,31.0937 201.0829,31.8017 201.7909,34.7027 L204.9449,27.9397" id="Fill-35" fill="#384C8E"></path>
                <path d="M15.9115853,200.969913 C15.9115853,230.750913 34.9475853,254.893913 65.1675853,254.893913" id="Stroke-37" stroke="#384C8E"></path>
                <path d="M70.6298853,254.893913 L63.6178853,252.341913 C63.6178853,252.341913 65.1678853,254.893913 63.6178853,257.445913 L70.6298853,254.893913" id="Fill-39" fill="#384C8E"></path>
            </g>
</svg>
